<svg id="Layer_1" data-name="Layer 1" xmlns="http://www.w3.org/2000/svg" viewBox="0 0 683.73 226"><defs><style>.cls-1{fill:#323232;}.cls-2{fill:#9b4b63;}.cls-3{fill:#fff;}</style></defs><path class="cls-1" d="M358.63,125.43q0,27.84-13.65,42.33t-40,14.48q-26,0-39.79-14.56t-13.85-42.4q0-27.54,13.77-42.06t40-14.52q26.34,0,39.91,14.41T358.63,125.43Zm-75.89,0q0,32,22.25,32,11.33,0,16.79-7.77t5.47-24.22q0-16.52-5.55-24.41t-16.56-7.88Q282.73,93.14,282.74,125.43Z"/><path class="cls-1" d="M423.65,180.73V134.11c0-5.69-.82-10-2.45-12.87s-4.26-4.33-7.89-4.33q-7.47,0-10.78,6t-3.32,20.44v37.42h-29.5V95.25H392l3.7,10.57h1.74a23.29,23.29,0,0,1,10.44-9.06,37,37,0,0,1,15.36-3q14.18,0,22.07,8.23t7.88,23.16v55.6Z"/><path class="cls-1" d="M465.51,74q0-6.65,3.69-9.89t11.92-3.24c5.49,0,9.48,1.11,12,3.32s3.77,5.48,3.77,9.81q0,13-15.77,13Q465.51,87,465.51,74Zm30.25,106.75h-29.5V95.25h29.5Z"/><path class="cls-1" d="M590.73,137.8q0,21-11.28,32.71t-31.58,11.73q-19.46,0-31-12T505.4,137.8q0-20.9,11.28-32.48t31.65-11.58a45.11,45.11,0,0,1,22.25,5.36,36.53,36.53,0,0,1,14.9,15.35Q590.73,124.46,590.73,137.8Zm-55.38,0q0,11,2.94,16.79t9.89,5.77q6.86,0,9.69-5.77t2.83-16.79q0-10.94-2.87-16.52T548,115.7q-6.78,0-9.73,5.54T535.35,137.8Z"/><path class="cls-1" d="M654.23,180.73V134.11c0-5.69-.82-10-2.45-12.87s-4.26-4.33-7.89-4.33q-7.47,0-10.78,6t-3.32,20.44v37.42h-29.5V95.25h22.25l3.7,10.57H628a23.29,23.29,0,0,1,10.44-9.06,37,37,0,0,1,15.36-3q14.18,0,22.07,8.23t7.88,23.16v55.6Z"/><rect class="cls-2" width="226" height="226" rx="69.69"/><path class="cls-3" d="M117.49,13.86c-2.5,1.81-9.69,6.94-13,13.88,25.31,76.51-36,82.55,5.64,142.39-28.89-2.39-40.57-23.87-40.57-39.56,0-32.07,23.57-40.38,26.36-77.8a34.19,34.19,0,0,0-8-5.79C73.37,88.24,43,90,43,130.57c0,36.52,31.56,64.07,69.71,64.07,40.6,0,69.67-31.89,69.67-64.07C182.35,76.56,130.29,86.61,117.49,13.86ZM128,164.56c16.12-23.25,16.23-47.95,0-70.65C162.83,108.91,162.83,149.38,128,164.56Z"/></svg>